<svg xmlns="http://www.w3.org/2000/svg" viewBox="0 0 720 560" role="img" version="1.1"><!-- © 2026 Tso KY - All Rights Reserved
Protected against reverse engineering and unauthorized modification
插圖版本 v4.0 --><title>乳牙內縮：根尖朝恆牙牙胚</title><desc>v4.0。灰階 X 光投影示意，並非實際影像。左側為患牙，右側為對側參照；牙冠朝上、牙根與牙胚朝下。患牙投影延長，根尖輪廓與位置較近的牙胚影像重疊，因此無法分辨根尖尖端。 灰階投影對照依原臨床用途保留；不改成彩色骨切塊。</desc><g data-part="bone"><path d="M37 177Q119 151 190 171Q266 189 351 174Q449 149 537 169Q615 185 683 177L683 502Q654 540 580 538Q500 548 414 536Q331 545 249 539Q106 553 37 511Z" fill="#424242" stroke="#565656" stroke-width="2" stroke-linecap="round" stroke-linejoin="round"/><path d="M87 218Q112 243 105 284M333 228Q352 295 341 356M615 231Q628 302 617 345M104 373L129 390M602 408L621 390" fill="none" stroke="#515151" stroke-width="2" stroke-linecap="round" stroke-linejoin="round"/></g><g data-part="lesion"><path d="M181 226Q183 262 186 280M198 326L203 347" fill="none" stroke="#a6a6a6" stroke-width="3" stroke-linecap="round" stroke-linejoin="round"/></g><g data-part="pdl"><ellipse cx="225" cy="454" rx="78" ry="74" fill="#292929" stroke="#858585" stroke-width="2"/><ellipse cx="498" cy="464" rx="78" ry="74" fill="#292929" stroke="#858585" stroke-width="2"/></g><g data-tooth="2"><g transform="matrix(1 0 0 .85 0 26.1)"><g data-part="pdl"><path d="M453 175C451 233 472 305 487 351Q500 385 511 373C530 346 537 294 541 252Q545 209 543 175" fill="none" stroke="#242424" stroke-width="4" stroke-linecap="round" stroke-linejoin="round"/></g><g data-part="dentin"><path d="M458 174C458 230 476 292 491 345Q499 373 506 367C523 342 530 295 536 251Q541 210 538 174Z" fill="#bdbdbd" stroke="#dedede" stroke-width="1.5" stroke-linecap="round" stroke-linejoin="round"/></g><g data-part="pulp"><path d="M486 174C487 230 495 303 499 344Q503 348 505 340C509 286 514 234 514 174Z" fill="#686868"/></g></g><g data-part="enamel"><path d="M447 76Q449 56 467 57Q498 52 529 57Q547 56 549 76L545 172Q498 182 451 172Z" fill="#eeeeee" stroke="#f6f6f6" stroke-width="1.5" stroke-linecap="round" stroke-linejoin="round"/></g><g data-part="dentin"><path d="M460 82Q498 68 536 82L534 171L462 171Z" fill="#bdbdbd"/></g><g data-part="pulp"><path d="M483 96Q498 80 513 96L510 177L486 177Z" fill="#686868"/></g></g><g data-tooth="1"><g data-part="dentin"><path d="M178 207C178 276 199 354 222 421Q234 452 243 435C259 387 266 306 272 207Z" fill="#bdbdbd" stroke="#dedede" stroke-width="1.5" stroke-linecap="round" stroke-linejoin="round"/></g><g data-part="pulp"><path d="M211 207C211 281 227 365 233 413Q238 417 240 405C246 340 247 273 240 207Z" fill="#686868"/></g><g data-part="enamel"><path d="M174 111Q176 91 194 92Q225 87 256 92Q274 91 276 111L272 207Q225 217 178 207Z" fill="#eeeeee" stroke="#f6f6f6" stroke-width="1.5" stroke-linecap="round" stroke-linejoin="round"/></g><g data-part="dentin"><path d="M187 117Q225 103 263 117L261 206L189 206Z" fill="#bdbdbd"/></g><g data-part="pulp"><path d="M210 131Q225 115 240 131L237 212L213 212Z" fill="#686868"/></g></g><g data-tooth="3" transform="translate(225 454)"><g data-part="enamel"><path d="M-54 18L-52 -33Q-50 -48 -34 -49Q0 -55 34 -49Q50 -48 52 -33L54 18L36 33Q0 23 -36 33Z" fill="#e2e2e2" stroke="#f0f0f0" stroke-width="1.5" stroke-linecap="round" stroke-linejoin="round"/></g><g data-part="dentin"><path d="M-39 11L-38 -24Q0 -39 38 -24L39 11L31 25Q0 17 -31 25Z" fill="#b3b3b3"/></g><g data-part="pulp"><path d="M-19 20L-18 -9Q0 -22 18 -9L19 20Q0 14 -19 20Z" fill="#666666"/></g><g data-part="dentin"><path d="M-39 20L-43 49M39 20L43 49" fill="none" stroke="#c7c7c7" stroke-width="8" stroke-linecap="round" stroke-linejoin="round"/></g></g><g data-tooth="4" transform="translate(498 464)"><g data-part="enamel"><path d="M-54 18L-52 -33Q-50 -48 -34 -49Q0 -55 34 -49Q50 -48 52 -33L54 18L36 33Q0 23 -36 33Z" fill="#e2e2e2" stroke="#f0f0f0" stroke-width="1.5" stroke-linecap="round" stroke-linejoin="round"/></g><g data-part="dentin"><path d="M-39 11L-38 -24Q0 -39 38 -24L39 11L31 25Q0 17 -31 25Z" fill="#b3b3b3"/></g><g data-part="pulp"><path d="M-19 20L-18 -9Q0 -22 18 -9L19 20Q0 14 -19 20Z" fill="#666666"/></g><g data-part="dentin"><path d="M-39 20L-43 49M39 20L43 49" fill="none" stroke="#c7c7c7" stroke-width="8" stroke-linecap="round" stroke-linejoin="round"/></g></g><g data-part="gingiva"/><g data-part="arrow"/>
</svg>
