<svg xmlns="http://www.w3.org/2000/svg" viewBox="0 0 240 240" role="img" version="1.1"><!-- © 2026 Tso KY - All Rights Reserved
Protected against reverse engineering and unauthorized modification
插圖版本 v4.0 --><title>生理食鹽水</title><desc>v4.0。細長塑膠醫用液體瓶，藍色旋蓋、無字標籤及液滴圖案。名稱與濃度資訊由 App 雙語標籤呈現。 本批保留已確認的物件辨識造型。</desc><g data-object="saline-bottle"><path d="M104 52L104 66C104 75 84 78 84 97L84 197Q84 214 100 214L144 214Q160 214 160 197L160 97C160 78 140 75 140 66L140 52Z" fill="#F4F7FA" stroke="#C9D4E2" stroke-width="2.5" stroke-linecap="round" stroke-linejoin="round"/>
<rect x="100" y="28" width="44" height="30" rx="6" fill="#C9D4E2" stroke="#4DA3FF" stroke-width="2"/><path d="M108 34 V51M117 34 V51M126 34 V51M135 34 V51" fill="none" stroke="#4DA3FF" stroke-width="1.8" stroke-linecap="round" stroke-linejoin="round"/>
<path d="M89 166Q122 172 155 166L155 197Q155 209 144 209L100 209Q89 209 89 197Z" fill="#4DA3FF" opacity=".35"/>
<rect x="96" y="102" width="52" height="55" rx="7" fill="#C9D4E2"/><g transform="translate(122 112) scale(0.75)"><path d="M0 0C-5 10 -14 17 -14 26 A14 14 0 0 0 14 26C14 17 5 10 0 0Z" fill="#4DA3FF"/></g>
<path d="M91 93L96 93M91 176L99 176M91 187L97 187M91 198L99 198" fill="none" stroke="#C9D4E2" stroke-width="2" stroke-linecap="round" stroke-linejoin="round"/></g>
</svg>
