<svg xmlns="http://www.w3.org/2000/svg" viewBox="0 0 240 240" role="img" version="1.1">
<!-- © 2026 Tso KY - All Rights Reserved
Protected against reverse engineering and unauthorized modification
插圖版本 v2.0 -->
<title>自來水不作保存液</title>
<desc>v2.0。水龍頭與盛水杯，加上紅色叉表示自來水不作脫落牙的保存液。這張是保存液判別，不是沖洗步驟。</desc>
<g data-object="faucet"><path d="M28 47 L99 47 L99 39 L129 39 L129 47 L155 47 Q177 47 177 70 L177 82 L150 82 L150 73 L28 73 Z" fill="#C9D4E2" stroke="#C9D4E2" stroke-width="2" stroke-linecap="round" stroke-linejoin="round"/><path d="M113 39 V25 M92 25 H137" fill="none" stroke="#C9D4E2" stroke-width="7" stroke-linecap="round" stroke-linejoin="round"/></g><path d="M156 90 L156 121 M169 91 L169 129" fill="none" stroke="#4DA3FF" stroke-width="3" stroke-linecap="round" stroke-linejoin="round"/><g data-object="water-cup"><path d="M115 137 L124 208 L202 208 L211 137 Z" fill="#4DA3FF" opacity=".15"/><path d="M119 165 Q163 174 208 165 L202 208 L124 208 Z" fill="#4DA3FF" opacity=".4"/><path d="M115 137 L124 208 L202 208 L211 137 M115 137 Q163 148 211 137" fill="none" stroke="#C9D4E2" stroke-width="3" stroke-linecap="round" stroke-linejoin="round"/></g><g data-symbol="prohibited"><path d="M49 138 L91 180 M91 138 L49 180" fill="none" stroke="#FF4D4F" stroke-width="7" stroke-linecap="round" stroke-linejoin="round"/></g>
</svg>
